<svg id="Layer_1" data-name="Layer 1" xmlns="http://www.w3.org/2000/svg" xmlns:xlink="http://www.w3.org/1999/xlink" viewBox="0 0 1715.19 925.73"><defs><style>.cls-1{fill:url(#linear-gradient);}.cls-2{fill:#0e3031;}.cls-3{fill:url(#radial-gradient);}.cls-4{fill:url(#radial-gradient-7);}.cls-5{fill:url(#radial-gradient-9);}.cls-6{fill:url(#radial-gradient-10);}</style><linearGradient id="linear-gradient" x1="1308.56" y1="57.94" x2="1590.26" y2="879.69" gradientUnits="userSpaceOnUse"><stop offset="0" stop-color="#ecdeb6"/><stop offset="0.44" stop-color="#eccc79"/><stop offset="1" stop-color="#dfb05a"/></linearGradient><radialGradient id="radial-gradient" cx="1377.79" cy="257.51" r="1024.18" xlink:href="#linear-gradient"/><radialGradient id="radial-gradient-7" cx="1291.08" cy="257.51" r="978.59" xlink:href="#linear-gradient"/><radialGradient id="radial-gradient-9" cx="1377.79" cy="251.87" r="1024.18" xlink:href="#linear-gradient"/><radialGradient id="radial-gradient-10" cx="1537.92" cy="257.51" r="1080.85" xlink:href="#linear-gradient"/></defs><path class="cls-1" d="M1817.49,536v467.1l-8.47-4.76V540.89A453.85,453.85,0,0,0,1355.14,87c-140.45,0-266,63.79-349.26,164l-3.67-3.4c84.09-103.87,212.61-170.26,356.65-170.26A458.61,458.61,0,0,1,1817.49,536Z" transform="translate(-102.3 -77.39)"/><circle class="cls-2" cx="1170.68" cy="463" r="462.73"/><path class="cls-3" d="M233.92,79.54v6H195.57V505.9h38.35v6.35H105.28V505.9h38.35V85.58H105.28v-6Z" transform="translate(-102.3 -77.39)"/><path class="cls-3" d="M385.81,506.21v6.34H262v-6.34h37.14V85.88H274.39V79.54h74.28V506.21Z" transform="translate(-102.3 -77.39)"/><path class="cls-3" d="M740.62,506.21v6.34H616.82v-6.34H654V359.15c3-80.92-29.29-121.39-74.29-121.39s-80.92,43.79-80.92,154.31V506.21h37.14v6.34H412.09v-6.34h37.14V85.88H424.47V79.54h74.28V321.71c13.89-69.45,50.43-99.95,100-99.95,61,0,104.78,41.07,104.78,137.39V506.21Z" transform="translate(-102.3 -77.39)"/><path class="cls-3" d="M960.76,239.58c18.72,12.07,28.08,28.68,28.08,50.12,0,16-4.83,29-14.79,38.35s-23.86,16-41.37,19.93c23.25,3.62,40.46,12.08,51.63,25.06,10.87,13,16.31,29.29,16.31,48.62a96.1,96.1,0,0,1-12.38,47.71c-8.15,14.79-20.84,26.27-38,35S911.54,518,885.57,518.28h-.9c-41.37-.9-74.28-14.79-99-41.66-25.06-26.88-37.44-62.51-37.44-106.6,0-29.59,6.34-55.56,18.72-77.9,12.38-22.05,29-39.56,50.13-51.94s45-18.72,71.26-18.72Q932.23,221.46,960.76,239.58Zm-4.83,254.55c13-8.15,22.65-18.42,29-31.41a92.22,92.22,0,0,0,9.66-41.06,69.92,69.92,0,0,0-9.06-35.33c-6-10.27-15.4-18.42-27.78-24.46s-28.38-9.06-47.71-9.06H800.42c-.3,5.44-.3,11.17-.3,17.21,0,28.09,4.83,52.54,14.19,72.77,9.36,20.54,22,36.24,38.35,47.11,16,11.17,34.42,16.61,54.65,16.61C926.64,506.51,943,502.28,955.93,494.13ZM831.22,258c-16.61,20.23-26.57,49.82-30.2,88.77h83.35c19,0,33.51-4.83,43.48-14.79,10-9.67,15.1-24.46,15.1-44.69,0-19.63-5.14-34.43-15.1-44.39s-23-14.8-39-14.8C866.85,228.1,847.53,238.07,831.22,258Z" transform="translate(-102.3 -77.39)"/><path class="cls-3" d="M1505.51,505.9v6.35H1381.7V505.9h37.15v-147c-3-80.92-22.95-120.18-64-120.18-41.67,0-72.77,42.58-72.77,153.09V505.9h37.14v6.35H1195.7V505.9h37.14v-147c-3-80.92-23.25-120.18-64.32-120.18-41.37,0-72.47,42.58-72.47,153.09V505.9h37.14v6.35h-123.8V505.9h37.14l.3-279h-24.76v-6h74.28l-.3,95.42c12.68-65.82,44.09-94.81,91.49-94.81,50.43,0,85.16,31.7,93,104.48,11.47-72.47,43.78-104.48,93-104.48,57.68,0,94.82,41.07,94.82,137.39v147Z" transform="translate(-102.3 -77.39)"/><path class="cls-3" d="M465.52,584.77v2.91c0,84.32-68,136.83-131,138.29v-5.84C393.17,718.68,457.64,670,459.39,590.6H309.15V996.7H346.2v6.13H221.92V996.7H259V590.6H108.72c1.46,79.35,65.93,128.08,124.87,129.53l-.3,5.84c-62.72-1.46-131-54-131-138.29v-2.91Z" transform="translate(-102.3 -77.39)"/><path class="cls-4" d="M653.08,997v6.13H533.76V997h34.42l-.63-131v2.34c0,63-26.84,133.9-96.86,133.9-44.05,0-86.93-26.25-86.93-84.6,0-53.39,35.59-76.44,105.89-96l63.6-17.8c-12.83-51.64-27.71-76.43-76.72-76.43l-49.6-.3V721.3l63.6.29c50.34,0,83.86,8.73,103.11,57.64a150.18,150.18,0,0,1,9.75,44.11L616,997ZM561.71,868.34c0-19.84-2-37.35-4.66-48.43-.88-3.5-1.46-7-2.34-10.51l-62.14,17.8c-34.71,9.92-58.64,41.14-58.64,82.56,0,49.31,26.26,74.4,61.56,74.4C539.83,984.16,561.71,920.85,561.71,868.34Z" transform="translate(-102.3 -77.39)"/><path class="cls-3" d="M1005.81,997v6.13H886.2V997h35.88V854.92c2.92-78.19-28.29-117.28-71.76-117.28s-78.19,42.3-78.19,149.08V997H808v6.13H688.4V997h35.89V590.89H700.36v-6.12h71.77v234c13.42-67.1,48.72-96.56,96.57-96.56,58.93,0,101.23,39.67,101.23,132.74V997Z" transform="translate(-102.3 -77.39)"/><path class="cls-5" d="M1218.49,733.74c18.09,11.67,27.13,27.72,27.13,48.43,0,15.46-4.67,28-14.3,37.05s-23,15.46-40,19.26c22.46,3.5,39.09,11.67,49.88,24.21,10.51,12.55,15.76,28.3,15.76,47a92.91,92.91,0,0,1-12,46.1c-7.88,14.29-20.13,25.38-36.76,33.84s-37.34,13.12-62.43,13.42H1145c-40-.88-71.77-14.3-95.69-40.26-24.21-26-36.17-60.39-36.17-103,0-28.59,6.12-53.68,18.08-75.26,12-21.3,28-38.22,48.43-50.18s43.47-18.09,68.85-18.09Q1190.92,716.24,1218.49,733.74Zm-4.67,245.94c12.55-7.88,21.88-17.8,28-30.34a89.24,89.24,0,0,0,9.33-39.68,67.51,67.51,0,0,0-8.75-34.13c-5.83-9.92-14.88-17.8-26.84-23.63s-27.42-8.75-46.09-8.75h-105.9c-.3,5.25-.3,10.79-.3,16.62,0,27.14,4.67,50.77,13.72,70.31,9,19.84,21.29,35,37,45.51,15.46,10.8,33.25,16,52.8,16C1185.52,991.64,1201.28,987.55,1213.82,979.68ZM1093.33,751.54c-16,19.55-25.67,48.14-29.17,85.77h80.52c18.38,0,32.38-4.67,42-14.3,9.63-9.33,14.59-23.63,14.59-43.17,0-19-5-33.26-14.59-42.89s-22.17-14.29-37.63-14.29C1127.76,722.66,1109.09,732.29,1093.33,751.54Z" transform="translate(-102.3 -77.39)"/><path class="cls-6" d="M1493.62,721.59V742.3c0,84.32-62.43,110-120.2,110h-24.8l-.29,144.7h469.16v6.13H1264.6V997h35.89l.29-269.86h-23.92V721.3h71.76V805c18.38-61.27,76.73-83.44,125.16-83.44Zm-6.13,5.84h-13.71c-56,0-123.11,33.84-125.16,119h24.8c55.43,0,114.07-24.51,114.07-104.16Z" transform="translate(-102.3 -77.39)"/></svg>