<svg width="10" height="10" viewBox="0 0 40 31" fill="none" xmlns="http://www.w3.org/2000/svg">
<path d="M2.93671 31C4.2117 31 7.38667 27.625 7.93667 26.5L14.9117 16.05C15.2617 15.35 15.4367 14.6 15.4367 13.825V2.5C15.4367 1.125 14.3117 0 12.9367 0H2.93667C1.56168 0 0.436669 1.125 0.436669 2.5V12.5C0.436669 13.875 1.56168 15 2.93667 15H7.93667L0.436634 26.5C-0.68836 28.725 0.436721 31 2.93671 31ZM27.9367 31C29.2117 31 32.3867 27.625 32.9367 26.5L39.9117 16.05C40.2617 15.35 40.4367 14.6 40.4367 13.825V2.5C40.4367 1.125 39.3117 0 37.9367 0H27.9367C26.5617 0 25.4367 1.125 25.4367 2.5V12.5C25.4367 13.875 26.5617 15 27.9367 15H32.9367L25.4367 26.5C24.3117 28.725 25.4367 31 27.9367 31Z" fill="#280909"/>
</svg>
